<svg viewBox="0 0 800 800" width="800" height="800" fill="none" xmlns="http://www.w3.org/2000/svg" stroke-linecap="round" stroke-linejoin="round" font-family="Pretendard, &#39;Apple SD Gothic Neo&#39;, sans-serif"><rect x="0" y="0" width="800" height="800" fill="#fff"></rect><text x="400" y="60" font-size="32" font-weight="700" fill="#3f4a40" text-anchor="middle" letter-spacing="0">성인 AED 패드 위치</text><text x="400" y="92" font-size="17" font-weight="600" fill="#9aa09a" text-anchor="middle" letter-spacing="0">Adult AED placement</text><path d="M 300 180 q 100 -40 200 0 q 30 120 18 360 q -118 60 -236 0 q -12 -240 18 -360 Z" fill="#e8c9a3" stroke="#d9b181" stroke-width="4"></path><line x1="320" y1="200" x2="480" y2="200" stroke="#d9b181" stroke-width="3"></line><g><rect x="284" y="254" width="92" height="92" rx="18" fill="#7fa881" stroke="#4f7553" stroke-width="4"></rect><rect x="300" y="270" width="60" height="60" rx="10" fill="#fff" opacity="0.35"></rect><text x="330" y="309" font-size="30" font-weight="800" fill="#fff" text-anchor="middle" letter-spacing="0">1</text></g><g><rect x="454" y="424" width="92" height="92" rx="18" fill="#7fa881" stroke="#4f7553" stroke-width="4"></rect><rect x="470" y="440" width="60" height="60" rx="10" fill="#fff" opacity="0.35"></rect><text x="500" y="479" font-size="30" font-weight="800" fill="#fff" text-anchor="middle" letter-spacing="0">2</text></g><path d="M 360 320 C 430 360 440 420 480 450" stroke="#4f7553" stroke-width="4" stroke-dasharray="2 9" fill="none"></path><text x="330" y="250" font-size="16" font-weight="600" fill="#4f7553" text-anchor="middle" letter-spacing="0">우측 쇄골 아래</text><text x="560" y="470" font-size="16" font-weight="600" fill="#4f7553" text-anchor="start" letter-spacing="0">좌측 흉부 측면</text></svg>