<svg viewBox="0 0 800 800" width="800" height="800" fill="none" xmlns="http://www.w3.org/2000/svg" stroke-linecap="round" stroke-linejoin="round" font-family="Pretendard,&#39;Apple SD Gothic Neo&#39;,sans-serif"><rect width="800" height="800" fill="#fff"></rect><text x="400" y="60" font-size="23" font-weight="700" fill="#3f4a40" text-anchor="middle">3 · AED 패드 부착 → 분석 → 충격</text><line x1="80" y1="600" x2="720" y2="600" stroke="#dfe6dd" stroke-width="6"></line>
  <circle cx="180" cy="560" r="40" fill="#e8c9a3" stroke="#d6ab7e" stroke-width="4"></circle>
  <rect x="220" y="520" width="260" height="80" rx="36" fill="#bcdcc0" stroke="#4f7553" stroke-width="4"></rect>
  <rect x="470" y="540" width="180" height="58" rx="28" fill="#a9c7ad" stroke="#4f7553" stroke-width="4"></rect><rect x="300" y="528" width="40" height="40" rx="8" fill="#7fa881" stroke="#4f7553" stroke-width="4"></rect><rect x="392" y="556" width="40" height="40" rx="8" fill="#7fa881" stroke="#4f7553" stroke-width="4"></rect><g transform="translate(540 150)"><rect x="0" y="0" width="170" height="210" rx="20" fill="#f3efe4" stroke="#4f7553" stroke-width="5"></rect><rect x="24" y="26" width="122" height="70" rx="8" fill="#eaf2ea"></rect><circle cx="85" cy="150" r="34" fill="#d96b5c"></circle><path d="M 90 130 l -16 26 h 16 l -8 22 22 -30 h -16 z" fill="#fff"></path></g><path d="M 330 548 q 110 -40 80 28" stroke="#4f7553" stroke-width="3" stroke-dasharray="2 8" fill="none"></path></svg>