<svg viewBox="0 0 800 800" width="800" height="800" fill="none" xmlns="http://www.w3.org/2000/svg" stroke-linecap="round" stroke-linejoin="round" font-family="Pretendard, &#39;Apple SD Gothic Neo&#39;, sans-serif"><rect x="0" y="0" width="800" height="800" fill="#fff"></rect><text x="400" y="56" font-size="28" font-weight="700" fill="#3f4a40" text-anchor="middle" letter-spacing="0">소아 AED 패드 위치 (샌드위치)</text><text x="400" y="86" font-size="16" font-weight="600" fill="#9aa09a" text-anchor="middle" letter-spacing="0">Pediatric AED placement</text><text x="225" y="128" font-size="18" font-weight="600" fill="#4f7553" text-anchor="middle" letter-spacing="0">전면</text><text x="575" y="128" font-size="18" font-weight="600" fill="#4f7553" text-anchor="middle" letter-spacing="0">후면</text><path d="M 165 200 q 60 -28 120 0 q 18 90 10 270 q -70 40 -140 0 q -8 -180 10 -270 Z" fill="#e8c9a3" stroke="#d9b181" stroke-width="4"></path><path d="M 515 200 q 60 -28 120 0 q 18 90 10 270 q -70 40 -140 0 q -8 -180 10 -270 Z" fill="#ecd9c4" stroke="#d9b181" stroke-width="4"></path><g><rect x="179" y="284" width="92" height="92" rx="18" fill="#7fa881" stroke="#4f7553" stroke-width="4"></rect><rect x="195" y="300" width="60" height="60" rx="10" fill="#fff" opacity="0.35"></rect><text x="225" y="339" font-size="30" font-weight="800" fill="#fff" text-anchor="middle" letter-spacing="0">1</text></g><g><rect x="529" y="284" width="92" height="92" rx="18" fill="#7fa881" stroke="#4f7553" stroke-width="4"></rect><rect x="545" y="300" width="60" height="60" rx="10" fill="#fff" opacity="0.35"></rect><text x="575" y="339" font-size="30" font-weight="800" fill="#fff" text-anchor="middle" letter-spacing="0">2</text></g><text x="225" y="520" font-size="16" font-weight="600" fill="#4f7553" text-anchor="middle" letter-spacing="0">흉골 중앙</text><text x="575" y="520" font-size="16" font-weight="600" fill="#4f7553" text-anchor="middle" letter-spacing="0">등 중앙</text></svg>