<svg viewBox="0 0 400 400" width="400" height="400" fill="none" xmlns="http://www.w3.org/2000/svg" stroke-linecap="round" stroke-linejoin="round" font-family="Pretendard,&#39;Apple SD Gothic Neo&#39;,sans-serif"><circle cx="200" cy="200" r="200" fill="#dcebe6"></circle><path d="M 52 400 C 52 312, 106 272, 200 272 C 294 272, 348 312, 348 400 Z" fill="#5f9e96" stroke="#5e6b5f" stroke-width="5"></path><path d="M 108 218 Q 96 76 200 76 Q 304 76 292 218 Q 260 248 200 240 Q 140 248 108 218 Z" fill="#e9dcc6" stroke="#5e6b5f" stroke-width="5"></path><circle cx="200" cy="182" r="62" fill="#e3bd95" stroke="#5e6b5f" stroke-width="5"></circle><circle cx="182" cy="188" r="6.5" fill="#3f4a40"></circle><circle cx="218" cy="188" r="6.5" fill="#3f4a40"></circle><circle cx="166" cy="204" r="10" fill="#f1b3a3" opacity="0.45"></circle><circle cx="234" cy="204" r="10" fill="#f1b3a3" opacity="0.45"></circle><path d="M 186 210 Q 200 224 214 210" stroke="#3f4a40" stroke-width="4.5" fill="none"></path><g><path d="M 166 248 Q 156 310 200 314 Q 244 310 234 248" stroke="#5e6b5f" stroke-width="6" fill="none"></path><circle cx="200" cy="328 " r="14" fill="#d9a441" stroke="#5e6b5f" stroke-width="4"></circle></g></svg>