<svg viewBox="0 0 400 400" width="400" height="400" fill="none" xmlns="http://www.w3.org/2000/svg" stroke-linecap="round" stroke-linejoin="round" font-family="Pretendard,&#39;Apple SD Gothic Neo&#39;,sans-serif"><circle cx="200" cy="200" r="200" fill="#f3e0db"></circle><path d="M 52 400 C 52 312, 106 272, 200 272 C 294 272, 348 312, 348 400 Z" fill="#d96b5c" stroke="#5e6b5f" stroke-width="5"></path><path d="M 170 276 L 200 320 L 230 276" fill="none" stroke="#5e6b5f" stroke-width="5"></path><path d="M 178 216 v 36 h 44 v -36 Z" fill="#c98f63" stroke="#5e6b5f" stroke-width="5"></path><circle cx="131" cy="186" r="13" fill="#c98f63" stroke="#5e6b5f" stroke-width="5"></circle><circle cx="269" cy="186" r="13" fill="#c98f63" stroke="#5e6b5f" stroke-width="5"></circle><circle cx="200" cy="178" r="72" fill="#c98f63" stroke="#5e6b5f" stroke-width="5"></circle><path d="M 128 174 Q 128 98 200 98 Q 272 98 272 174 Q 200 124 128 174 Z" fill="#2a2420" stroke="#5e6b5f" stroke-width="4"></path><circle cx="180" cy="184" r="6.5" fill="#3f4a40"></circle><circle cx="220" cy="184" r="6.5" fill="#3f4a40"></circle><path d="M 168 168 q 12 -6 22 -1 M 210 167 q 10 -5 22 1" stroke="#2a2420" stroke-width="4" fill="none"></path><circle cx="160" cy="202" r="11" fill="#f1b3a3" opacity="0.45"></circle><circle cx="240" cy="202" r="11" fill="#f1b3a3" opacity="0.45"></circle><path d="M 184 208 Q 200 224 216 208" stroke="#3f4a40" stroke-width="4.5" fill="none"></path><g><path d="M 166 248 Q 156 310 200 314 Q 244 310 234 248" stroke="#5e6b5f" stroke-width="6" fill="none"></path><circle cx="200" cy="328 " r="14" fill="#d9a441" stroke="#5e6b5f" stroke-width="4"></circle></g></svg>