<svg viewBox="0 0 200 200" width="400" height="400" fill="none" xmlns="http://www.w3.org/2000/svg" stroke-linecap="round" stroke-linejoin="round">
  <ellipse cx="104" cy="176" rx="52" ry="8" fill="#e7f0e7"></ellipse>
  <circle cx="92" cy="86" r="44" fill="#e7f0e7" stroke="#557d58" stroke-width="6"></circle>
  <line x1="124" y1="118" x2="156" y2="150" stroke="#557d58" stroke-width="11"></line>
  <path d="M 80 74 a 12 12 0 1 1 18 12 c -5 4 -6 7 -6 12" fill="none" stroke="#7fa881" stroke-width="6"></path>
  <circle cx="92" cy="108" r="3.6" fill="#7fa881"></circle>
  <path d="M 150 43 C 151.62 50.38 151.62 50.38 159 52 C 151.62 53.62 151.62 53.62 150 61 C 148.38 53.62 148.38 53.62 141 52 C 148.38 50.38 148.38 50.38 150 43 Z" fill="#f0d79b"></path><path d="M 40 111 C 41.26 116.74 41.26 116.74 47 118 C 41.26 119.26 41.26 119.26 40 125 C 38.74 119.26 38.74 119.26 33 118 C 38.74 116.74 38.74 116.74 40 111 Z" fill="#7fa881"></path></svg>