<svg viewBox="0 0 200 200" width="400" height="400" fill="none" xmlns="http://www.w3.org/2000/svg" stroke-linecap="round" stroke-linejoin="round">
  <ellipse cx="100" cy="176" rx="50" ry="8" fill="#e7f0e7"></ellipse>
  <path d="M 70 46 h 60 v 26 a 30 30 0 0 1 -60 0 Z" fill="#f0d79b" stroke="#557d58" stroke-width="6"></path>
  <path d="M 70 52 h -14 a 6 6 0 0 0 -6 6 v 6 a 16 16 0 0 0 20 15" fill="none" stroke="#557d58" stroke-width="6"></path>
  <path d="M 130 52 h 14 a 6 6 0 0 1 6 6 v 6 a 16 16 0 0 1 -20 15" fill="none" stroke="#557d58" stroke-width="6"></path>
  <line x1="100" y1="102" x2="100" y2="124" stroke="#557d58" stroke-width="6"></line>
  <path d="M 80 150 q 20 -26 40 0 Z" fill="#7fa881" stroke="#557d58" stroke-width="6"></path>
  <rect x="74" y="146" width="52" height="10" rx="5" fill="#7fa881" stroke="#557d58" stroke-width="6"></rect>
  <path d="M 150 49 C 151.98 58.02 151.98 58.02 161 60 C 151.98 61.98 151.98 61.98 150 71 C 148.02 61.98 148.02 61.98 139 60 C 148.02 58.02 148.02 58.02 150 49 Z" fill="#d9a441"></path><path d="M 46 56 C 47.44 62.56 47.44 62.56 54 64 C 47.44 65.44 47.44 65.44 46 72 C 44.56 65.44 44.56 65.44 38 64 C 44.56 62.56 44.56 62.56 46 56 Z" fill="#7fa881"></path><path d="M 56 112 C 57.08 116.92 57.08 116.92 62 118 C 57.08 119.08 57.08 119.08 56 124 C 54.92 119.08 54.92 119.08 50 118 C 54.92 116.92 54.92 116.92 56 112 Z" fill="#f0d79b"></path></svg>