<svg viewBox="0 0 200 200" width="400" height="400" fill="none" xmlns="http://www.w3.org/2000/svg" stroke-linecap="round" stroke-linejoin="round">
  <ellipse cx="100" cy="172" rx="60" ry="9" fill="#e7f0e7"></ellipse>
  <rect x="54" y="44" width="92" height="116" rx="12" fill="#f5efe2" stroke="#557d58" stroke-width="6"></rect>
  <rect x="54" y="44" width="20" height="116" rx="9" fill="#7fa881" stroke="#557d58" stroke-width="6"></rect>
  <line x1="90" y1="74" x2="130" y2="74" stroke="#d8c6a4" stroke-width="6"></line>
  <line x1="90" y1="92" x2="124" y2="92" stroke="#d8c6a4" stroke-width="6"></line>
  <circle cx="116" cy="120" r="26" fill="#7fa881" stroke="#557d58" stroke-width="6"></circle>
  <path d="M 105 120 L 113 128 L 128 110" stroke="#fff" stroke-width="6.5"></path>
  <path d="M 150 47 C 151.98 56.02 151.98 56.02 161 58 C 151.98 59.98 151.98 59.98 150 69 C 148.02 59.98 148.02 59.98 139 58 C 148.02 56.02 148.02 56.02 150 47 Z" fill="#d9a441"></path><path d="M 44 88 C 45.44 94.56 45.44 94.56 52 96 C 45.44 97.44 45.44 97.44 44 104 C 42.56 97.44 42.56 97.44 36 96 C 42.56 94.56 42.56 94.56 44 88 Z" fill="#7fa881"></path><path d="M 60 23 C 61.26 28.74 61.26 28.74 67 30 C 61.26 31.26 61.26 31.26 60 37 C 58.74 31.26 58.74 31.26 53 30 C 58.74 28.74 58.74 28.74 60 23 Z" fill="#f0d79b"></path></svg>