<svg viewBox="0 0 800 600" width="800" height="600" fill="none" xmlns="http://www.w3.org/2000/svg" stroke-linecap="round" stroke-linejoin="round" font-family="Pretendard,&#39;Apple SD Gothic Neo&#39;,sans-serif"><rect width="800" height="600" fill="#fff"></rect><text x="400" y="48" font-size="28" font-weight="700" fill="#3f4a40" text-anchor="middle">자궁저 높이 · 40주</text><line x1="120" y1="560" x2="680" y2="560" stroke="#dfe6dd" stroke-width="6"></line><path d="M 330 150 C 312 260 312 420 330 540 L 372 540 C 360 420 360 300 372 200 Z" fill="#e8c9a3" stroke="#d6ab7e" stroke-width="4"></path><circle cx="352" cy="112" r="42" fill="#e8c9a3" stroke="#d6ab7e" stroke-width="4"></circle><path d="M 314 100 Q 300 70 330 72 Q 320 96 352 70 Q 392 70 388 108 Q 372 86 352 92 Q 336 88 326 104 Z" fill="#5b4636"></path><circle cx="324" cy="120" r="20" fill="#5b4636"></circle><ellipse cx="395" cy="219" rx="34" ry="26" fill="#e8c9a3" stroke="#d6ab7e" stroke-width="4"></ellipse><ellipse cx="420" cy="415" rx="163.2" ry="170" fill="#e8c9a3" stroke="#d6ab7e" stroke-width="4"></ellipse><ellipse cx="420" cy="415" rx="163.2" ry="170" fill="#7fa881" opacity="0.10"></ellipse><rect x="340" y="540" width="34" height="0"></rect><path d="M 372 470 C 420 540 430 540 470 540 L 470 560 L 372 560 Z" fill="#e8c9a3" stroke="#d6ab7e" stroke-width="4"></path><circle cx="362" cy="230" r="5" fill="#4f7553"></circle><text x="300" y="234" font-size="13" font-weight="600" fill="#8a8f88" text-anchor="end">검상돌기</text><circle cx="372" cy="330" r="5" fill="#4f7553"></circle><text x="300" y="334" font-size="13" font-weight="600" fill="#8a8f88" text-anchor="end">배꼽</text><line x1="318" y1="230" x2="362" y2="230" stroke="#cdd4cc" stroke-width="2"></line><line x1="318" y1="330" x2="372" y2="330" stroke="#cdd4cc" stroke-width="2"></line><line x1="360" y1="245" x2="623.2" y2="245" stroke="#d96b5c" stroke-width="4" stroke-dasharray="8 6"></line><circle cx="420" cy="245" r="6" fill="#d96b5c"></circle><text x="636" y="251" font-size="15" font-weight="700" fill="#d96b5c" text-anchor="start">자궁저</text></svg>