<svg viewBox="0 0 800 600" width="800" height="600" fill="none" xmlns="http://www.w3.org/2000/svg" stroke-linecap="round" stroke-linejoin="round" font-family="Pretendard, &#39;Apple SD Gothic Neo&#39;, sans-serif"><rect x="0" y="0" width="800" height="600" fill="#fff"></rect><text x="400" y="56" font-size="30" font-weight="700" fill="#3f4a40" text-anchor="middle" letter-spacing="0">Glasgow Coma Scale · GCS</text><text x="400" y="84" font-size="15" font-weight="600" fill="#9aa09a" text-anchor="middle" letter-spacing="0">점수가 낮을수록(빨강) 의식 저하</text><rect x="70" y="120" width="200" height="268" rx="16" fill="#eaf2ea" stroke="#4f7553" stroke-width="3"></rect><text x="170" y="160" font-size="22" font-weight="700" fill="#4f7553" text-anchor="middle" letter-spacing="0">E · 4</text><text x="170" y="184" font-size="15" font-weight="600" fill="#7a8079" text-anchor="middle" letter-spacing="0">개안</text><rect x="84" y="212" width="172" height="42" rx="10" fill="#fff" stroke="#cfe0cf" stroke-width="2"></rect><circle cx="108" cy="233" r="13" fill="#3f4a40"></circle><text x="108" y="239" font-size="15" font-weight="700" fill="#fff" text-anchor="middle" letter-spacing="0">4</text><text x="128" y="239" font-size="14" font-weight="500" fill="#3f4a40" text-anchor="start" letter-spacing="0">자발적</text><rect x="84" y="264" width="172" height="42" rx="10" fill="#fff" stroke="#cfe0cf" stroke-width="2"></rect><circle cx="108" cy="285" r="13" fill="#3f4a40"></circle><text x="108" y="291" font-size="15" font-weight="700" fill="#fff" text-anchor="middle" letter-spacing="0">3</text><text x="128" y="291" font-size="14" font-weight="500" fill="#3f4a40" text-anchor="start" letter-spacing="0">음성에</text><rect x="84" y="316" width="172" height="42" rx="10" fill="#f3cfc8" stroke="#d96b5c" stroke-width="2"></rect><circle cx="108" cy="337" r="13" fill="#d96b5c"></circle><text x="108" y="343" font-size="15" font-weight="700" fill="#fff" text-anchor="middle" letter-spacing="0">2</text><text x="128" y="343" font-size="14" font-weight="500" fill="#d96b5c" text-anchor="start" letter-spacing="0">통증에</text><rect x="84" y="368" width="172" height="42" rx="10" fill="#f3cfc8" stroke="#d96b5c" stroke-width="2"></rect><circle cx="108" cy="389" r="13" fill="#d96b5c"></circle><text x="108" y="395" font-size="15" font-weight="700" fill="#fff" text-anchor="middle" letter-spacing="0">1</text><text x="128" y="395" font-size="14" font-weight="500" fill="#d96b5c" text-anchor="start" letter-spacing="0">없음</text><rect x="300" y="120" width="200" height="320" rx="16" fill="#eaf2ea" stroke="#4f7553" stroke-width="3"></rect><text x="400" y="160" font-size="22" font-weight="700" fill="#4f7553" text-anchor="middle" letter-spacing="0">V · 5</text><text x="400" y="184" font-size="15" font-weight="600" fill="#7a8079" text-anchor="middle" letter-spacing="0">언어</text><rect x="314" y="212" width="172" height="42" rx="10" fill="#fff" stroke="#cfe0cf" stroke-width="2"></rect><circle cx="338" cy="233" r="13" fill="#3f4a40"></circle><text x="338" y="239" font-size="15" font-weight="700" fill="#fff" text-anchor="middle" letter-spacing="0">5</text><text x="358" y="239" font-size="14" font-weight="500" fill="#3f4a40" text-anchor="start" letter-spacing="0">지남력</text><rect x="314" y="264" width="172" height="42" rx="10" fill="#fff" stroke="#cfe0cf" stroke-width="2"></rect><circle cx="338" cy="285" r="13" fill="#3f4a40"></circle><text x="338" y="291" font-size="15" font-weight="700" fill="#fff" text-anchor="middle" letter-spacing="0">4</text><text x="358" y="291" font-size="14" font-weight="500" fill="#3f4a40" text-anchor="start" letter-spacing="0">혼돈</text><rect x="314" y="316" width="172" height="42" rx="10" fill="#fff" stroke="#cfe0cf" stroke-width="2"></rect><circle cx="338" cy="337" r="13" fill="#3f4a40"></circle><text x="338" y="343" font-size="15" font-weight="700" fill="#fff" text-anchor="middle" letter-spacing="0">3</text><text x="358" y="343" font-size="14" font-weight="500" fill="#3f4a40" text-anchor="start" letter-spacing="0">부적절</text><rect x="314" y="368" width="172" height="42" rx="10" fill="#f3cfc8" stroke="#d96b5c" stroke-width="2"></rect><circle cx="338" cy="389" r="13" fill="#d96b5c"></circle><text x="338" y="395" font-size="15" font-weight="700" fill="#fff" text-anchor="middle" letter-spacing="0">2</text><text x="358" y="395" font-size="14" font-weight="500" fill="#d96b5c" text-anchor="start" letter-spacing="0">이해불가</text><rect x="314" y="420" width="172" height="42" rx="10" fill="#f3cfc8" stroke="#d96b5c" stroke-width="2"></rect><circle cx="338" cy="441" r="13" fill="#d96b5c"></circle><text x="338" y="447" font-size="15" font-weight="700" fill="#fff" text-anchor="middle" letter-spacing="0">1</text><text x="358" y="447" font-size="14" font-weight="500" fill="#d96b5c" text-anchor="start" letter-spacing="0">없음</text><rect x="530" y="120" width="200" height="372" rx="16" fill="#eaf2ea" stroke="#4f7553" stroke-width="3"></rect><text x="630" y="160" font-size="22" font-weight="700" fill="#4f7553" text-anchor="middle" letter-spacing="0">M · 6</text><text x="630" y="184" font-size="15" font-weight="600" fill="#7a8079" text-anchor="middle" letter-spacing="0">운동</text><rect x="544" y="212" width="172" height="42" rx="10" fill="#fff" stroke="#cfe0cf" stroke-width="2"></rect><circle cx="568" cy="233" r="13" fill="#3f4a40"></circle><text x="568" y="239" font-size="15" font-weight="700" fill="#fff" text-anchor="middle" letter-spacing="0">6</text><text x="588" y="239" font-size="14" font-weight="500" fill="#3f4a40" text-anchor="start" letter-spacing="0">명령수행</text><rect x="544" y="264" width="172" height="42" rx="10" fill="#fff" stroke="#cfe0cf" stroke-width="2"></rect><circle cx="568" cy="285" r="13" fill="#3f4a40"></circle><text x="568" y="291" font-size="15" font-weight="700" fill="#fff" text-anchor="middle" letter-spacing="0">5</text><text x="588" y="291" font-size="14" font-weight="500" fill="#3f4a40" text-anchor="start" letter-spacing="0">통증국소화</text><rect x="544" y="316" width="172" height="42" rx="10" fill="#fff" stroke="#cfe0cf" stroke-width="2"></rect><circle cx="568" cy="337" r="13" fill="#3f4a40"></circle><text x="568" y="343" font-size="15" font-weight="700" fill="#fff" text-anchor="middle" letter-spacing="0">4</text><text x="588" y="343" font-size="14" font-weight="500" fill="#3f4a40" text-anchor="start" letter-spacing="0">회피굴곡</text><rect x="544" y="368" width="172" height="42" rx="10" fill="#fff" stroke="#cfe0cf" stroke-width="2"></rect><circle cx="568" cy="389" r="13" fill="#3f4a40"></circle><text x="568" y="395" font-size="15" font-weight="700" fill="#fff" text-anchor="middle" letter-spacing="0">3</text><text x="588" y="395" font-size="14" font-weight="500" fill="#3f4a40" text-anchor="start" letter-spacing="0">이상굴곡</text><rect x="544" y="420" width="172" height="42" rx="10" fill="#f3cfc8" stroke="#d96b5c" stroke-width="2"></rect><circle cx="568" cy="441" r="13" fill="#d96b5c"></circle><text x="568" y="447" font-size="15" font-weight="700" fill="#fff" text-anchor="middle" letter-spacing="0">2</text><text x="588" y="447" font-size="14" font-weight="500" fill="#d96b5c" text-anchor="start" letter-spacing="0">이상신전</text><rect x="544" y="472" width="172" height="42" rx="10" fill="#f3cfc8" stroke="#d96b5c" stroke-width="2"></rect><circle cx="568" cy="493" r="13" fill="#d96b5c"></circle><text x="568" y="499" font-size="15" font-weight="700" fill="#fff" text-anchor="middle" letter-spacing="0">1</text><text x="588" y="499" font-size="14" font-weight="500" fill="#d96b5c" text-anchor="start" letter-spacing="0">없음</text></svg>