<svg viewBox="0 0 1080 1080" width="1080" height="1080" fill="none" xmlns="http://www.w3.org/2000/svg" stroke-linecap="round" stroke-linejoin="round" font-family="Pretendard,&#39;Apple SD Gothic Neo&#39;,sans-serif"><rect width="1080" height="1080" fill="#7fa881"></rect><path d="M 523.0016657336943 97.45074686603178 l 6 6" stroke="#fff" stroke-width="0"></path><path d="M 967.3035897624338 88.38073035936381 l 6 6" stroke="#fff" stroke-width="0"></path><path d="M 118.38714439021877 136.5283992931365 l 6 6" stroke="#fff" stroke-width="0"></path><path d="M 918.9308333560522 219.86175401354603 l 6 6" stroke="#fff" stroke-width="0"></path><path d="M 89.89352839866876 994.0410392231462 l 6 6" stroke="#fff" stroke-width="0"></path><path d="M 465.64207490319 329.4403526925446 l 6 6" stroke="#fff" stroke-width="0"></path><path d="M 298.36992621741456 818.5425608948675 l 6 6" stroke="#fff" stroke-width="0"></path><path d="M 842.2139171503977 239.12799744596887 l 6 6" stroke="#fff" stroke-width="0"></path><path d="M 483.8044556260451 889.1596076157372 l 6 6" stroke="#fff" stroke-width="0"></path><path d="M 738.4383486310702 922.7890028459619 l 6 6" stroke="#fff" stroke-width="0"></path><path d="M 899.5981494731581 800.4825867265162 l 6 6" stroke="#fff" stroke-width="0"></path><path d="M 655.3907377134251 260.47751530374546 l 6 6" stroke="#fff" stroke-width="0"></path><path d="M 884.8619557166338 184.19632914132146 l 6 6" stroke="#fff" stroke-width="0"></path><path d="M 241.66161746469763 950.076356801215 l 6 6" stroke="#fff" stroke-width="0"></path><text x="540" y="560" font-size="420" font-weight="900" fill="#fff" text-anchor="middle" letter-spacing="-0.02em">무료</text><text x="540" y="720" font-size="40" font-weight="600" fill="#e9f3ea" text-anchor="middle" letter-spacing="-0.02em">광고는 부활 · 힌트 광고만 (선택)</text><g opacity="0.9"><path d="M 180 234 Q 185 255 206 260 Q 185 265 180 286 Q 175 265 154 260 Q 175 255 180 234 Z" fill="#fff"></path><path d="M 880 274 Q 885 295 906 300 Q 885 305 880 326 Q 875 305 854 300 Q 875 295 880 274 Z" fill="#fff"></path><path d="M 260 794 Q 265 815 286 820 Q 265 825 260 846 Q 255 825 234 820 Q 255 815 260 794 Z" fill="#fff"></path><path d="M 820 774 Q 825 795 846 800 Q 825 805 820 826 Q 815 805 794 800 Q 815 795 820 774 Z" fill="#fff"></path></g></svg>