<svg viewBox="0 0 1080 1080" width="1080" height="1080" fill="none" xmlns="http://www.w3.org/2000/svg" stroke-linecap="round" stroke-linejoin="round" font-family="Pretendard,&#39;Apple SD Gothic Neo&#39;,sans-serif"><rect width="1080" height="1080" fill="#f5efe2"></rect><text x="90" y="170" font-size="84" font-weight="900" fill="#3f6043" text-anchor="start" letter-spacing="-0.02em">왜 만들었나</text><rect x="90" y="200" width="150" height="12" rx="6" fill="#d9a441"></rect><rect x="80" y="274" width="920" height="92" rx="22" fill="#fff" stroke="#ece2cf" stroke-width="3"></rect><circle cx="150" cy="320" r="30" fill="#7fa881"></circle><path d="M 136.5 320 L 147 331.4 L 165 308" stroke="#fff" stroke-width="8.4" fill="none"></path><text x="220" y="334" font-size="42" font-weight="700" fill="#2f3a30" text-anchor="start" letter-spacing="-0.02em">한국 국시 1,000+ 문제</text><rect x="80" y="390" width="920" height="92" rx="22" fill="#fff" stroke="#ece2cf" stroke-width="3"></rect><circle cx="150" cy="436" r="30" fill="#7fa881"></circle><path d="M 136.5 436 L 147 447.4 L 165 424" stroke="#fff" stroke-width="8.4" fill="none"></path><text x="220" y="450" font-size="42" font-weight="700" fill="#2f3a30" text-anchor="start" letter-spacing="-0.02em">NCLEX 2,200 문제</text><rect x="80" y="506" width="920" height="92" rx="22" fill="#fff" stroke="#ece2cf" stroke-width="3"></rect><circle cx="150" cy="552" r="30" fill="#7fa881"></circle><path d="M 136.5 552 L 147 563.4 L 165 540" stroke="#fff" stroke-width="8.4" fill="none"></path><text x="220" y="566" font-size="42" font-weight="700" fill="#2f3a30" text-anchor="start" letter-spacing="-0.02em">35편 임상 시뮬레이션</text><rect x="80" y="622" width="920" height="92" rx="22" fill="#fff" stroke="#ece2cf" stroke-width="3"></rect><circle cx="150" cy="668" r="30" fill="#7fa881"></circle><path d="M 136.5 668 L 147 679.4 L 165 656" stroke="#fff" stroke-width="8.4" fill="none"></path><text x="220" y="682" font-size="42" font-weight="700" fill="#2f3a30" text-anchor="start" letter-spacing="-0.02em">광고 거의 없음</text><rect x="80" y="738" width="920" height="92" rx="22" fill="#fff" stroke="#ece2cf" stroke-width="3"></rect><circle cx="150" cy="784" r="30" fill="#7fa881"></circle><path d="M 136.5 784 L 147 795.4 L 165 772" stroke="#fff" stroke-width="8.4" fill="none"></path><text x="220" y="798" font-size="42" font-weight="700" fill="#2f3a30" text-anchor="start" letter-spacing="-0.02em">회원가입 없음</text><rect x="80" y="854" width="920" height="92" rx="22" fill="#fff" stroke="#ece2cf" stroke-width="3"></rect><circle cx="150" cy="900" r="30" fill="#7fa881"></circle><path d="M 136.5 900 L 147 911.4 L 165 888" stroke="#fff" stroke-width="8.4" fill="none"></path><text x="220" y="914" font-size="42" font-weight="700" fill="#2f3a30" text-anchor="start" letter-spacing="-0.02em">완전 무료</text></svg>