<svg viewBox="0 0 1080 1920" width="1080" height="1920" fill="none" xmlns="http://www.w3.org/2000/svg" stroke-linecap="round" stroke-linejoin="round" font-family="Pretendard,&#39;Apple SD Gothic Neo&#39;,sans-serif"><rect width="1080" height="1920" fill="#f5efe2"></rect><rect x="0" y="0" width="1080" height="620" fill="#3f6043"></rect><text x="540" y="260" font-size="150" font-weight="900" fill="#fff" text-anchor="middle" letter-spacing="-0.02em">NCLEX</text><text x="540" y="400" font-size="80" font-weight="800" fill="#d9a441" text-anchor="middle" letter-spacing="-0.02em">2,200 문제 무료</text><g transform="translate(760 470)"><clipPath id="uf760"><rect x="0" y="0" width="150" height="93" rx="8"></rect></clipPath><g clip-path="url(#uf760)"><rect x="0" y="0" width="150" height="13.285714285714286" fill="#c1392b"></rect><rect x="0" y="13.285714285714286" width="150" height="13.285714285714286" fill="#fff"></rect><rect x="0" y="26.571428571428573" width="150" height="13.285714285714286" fill="#c1392b"></rect><rect x="0" y="39.857142857142854" width="150" height="13.285714285714286" fill="#fff"></rect><rect x="0" y="53.142857142857146" width="150" height="13.285714285714286" fill="#c1392b"></rect><rect x="0" y="66.42857142857143" width="150" height="13.285714285714286" fill="#fff"></rect><rect x="0" y="79.71428571428571" width="150" height="13.285714285714286" fill="#c1392b"></rect><rect x="0" y="0" width="63" height="50.220000000000006" fill="#2a3f7a"></rect></g><rect x="0" y="0" width="150" height="93" rx="8" fill="none" stroke="#d9d2c2" stroke-width="3"></rect></g><g transform="translate(320 520) scale(1.1)"><path d="M -70 -80 Q -70 40 0 40 Q 70 40 70 -60" stroke="#fff" stroke-width="14" fill="none"></path><circle cx="-70" cy="-86" r="12" fill="#fff"></circle><circle cx="70" cy="-66" r="12" fill="#fff"></circle><circle cx="0" cy="70" r="34" fill="#fff"></circle><circle cx="0" cy="70" r="18" fill="#fff" opacity="0.4"></circle></g><text x="540" y="900" font-size="46" font-weight="700" fill="#2f3a30" text-anchor="middle" letter-spacing="-0.02em">미국 간호사 시험까지</text><text x="540" y="970" font-size="38" font-weight="600" fill="#8a9089" text-anchor="middle" letter-spacing="-0.02em">한 앱에서, 가입 없이, 무료로</text><g transform="translate(540 1380) scale(0.92)"><rect x="-180" y="-360" width="360" height="720" rx="56" fill="#2f3a30"></rect><rect x="-166" y="-346" width="332" height="692" rx="46" fill="#f5efe2"></rect><rect x="-40" y="-346" width="80" height="26" rx="13" fill="#2f3a30"></rect><text x="0" y="-272" font-size="30" font-weight="800" fill="#3f6043" text-anchor="middle" letter-spacing="-0.02em">간호사 시뮬레이터</text><text x="0" y="-238" font-size="18" font-weight="600" fill="#8a9089" text-anchor="middle" letter-spacing="-0.02em">국시 · NCLEX · 임상</text><rect x="-150" y="-200" width="146" height="146" rx="22" fill="#fff" stroke="#e7ddca" stroke-width="3"></rect><circle cx="-110" cy="-156" r="22" fill="#7fa881" opacity="0.18"></circle><circle cx="-110" cy="-156" r="11" fill="#7fa881"></circle><text x="-130" y="-92" font-size="22" font-weight="700" fill="#2f3a30" text-anchor="start" letter-spacing="-0.03em">국시</text><rect x="4" y="-200" width="146" height="146" rx="22" fill="#fff" stroke="#e7ddca" stroke-width="3"></rect><circle cx="44" cy="-156" r="22" fill="#3a5da8" opacity="0.18"></circle><circle cx="44" cy="-156" r="11" fill="#3a5da8"></circle><text x="24" y="-92" font-size="22" font-weight="700" fill="#2f3a30" text-anchor="start" letter-spacing="-0.03em">NCLEX</text><rect x="-150" y="-44" width="146" height="146" rx="22" fill="#fff" stroke="#e7ddca" stroke-width="3"></rect><circle cx="-110" cy="0" r="22" fill="#d9a441" opacity="0.18"></circle><circle cx="-110" cy="0" r="11" fill="#d9a441"></circle><text x="-130" y="64" font-size="22" font-weight="700" fill="#2f3a30" text-anchor="start" letter-spacing="-0.03em">임상시뮬</text><rect x="4" y="-44" width="146" height="146" rx="22" fill="#fff" stroke="#e7ddca" stroke-width="3"></rect><circle cx="44" cy="0" r="22" fill="#d96b5c" opacity="0.18"></circle><circle cx="44" cy="0" r="11" fill="#d96b5c"></circle><text x="24" y="64" font-size="22" font-weight="700" fill="#2f3a30" text-anchor="start" letter-spacing="-0.03em">오답노트</text><rect x="-150" y="112" width="146" height="146" rx="22" fill="#fff" stroke="#e7ddca" stroke-width="3"></rect><circle cx="-110" cy="156" r="22" fill="#557d58" opacity="0.18"></circle><circle cx="-110" cy="156" r="11" fill="#557d58"></circle><text x="-130" y="220" font-size="22" font-weight="700" fill="#2f3a30" text-anchor="start" letter-spacing="-0.03em">약점분석</text><rect x="4" y="112" width="146" height="146" rx="22" fill="#fff" stroke="#e7ddca" stroke-width="3"></rect><circle cx="44" cy="156" r="22" fill="#3f6043" opacity="0.18"></circle><circle cx="44" cy="156" r="11" fill="#3f6043"></circle><text x="24" y="220" font-size="22" font-weight="700" fill="#2f3a30" text-anchor="start" letter-spacing="-0.03em">북마크</text></g><text x="540" y="1870" font-size="30" font-weight="700" fill="#8a9089" text-anchor="middle" letter-spacing="0">@간호사시뮬레이터</text></svg>