<svg viewBox="0 0 800 600" width="800" height="600" fill="none" xmlns="http://www.w3.org/2000/svg" stroke-linecap="round" stroke-linejoin="round" font-family="Pretendard,&#39;Apple SD Gothic Neo&#39;,sans-serif"><rect width="800" height="600" fill="#f5efe2"></rect><rect x="0" y="0" width="800" height="130" fill="#7fa881"></rect><text x="40" y="82" font-size="34" font-weight="800" fill="#fff" text-anchor="start" letter-spacing="-0.02em">졸업한 선배가 만든</text><text x="40" y="118" font-size="30" font-weight="700" fill="#e9f3ea" text-anchor="start" letter-spacing="-0.02em">무료 간호 국시 앱</text><g transform="translate(220 400) scale(0.5)"><rect x="-180" y="-360" width="360" height="720" rx="56" fill="#2f3a30"></rect><rect x="-166" y="-346" width="332" height="692" rx="46" fill="#f5efe2"></rect><rect x="-40" y="-346" width="80" height="26" rx="13" fill="#2f3a30"></rect><text x="0" y="-272" font-size="30" font-weight="800" fill="#3f6043" text-anchor="middle" letter-spacing="-0.02em">간호사 시뮬레이터</text><text x="0" y="-238" font-size="18" font-weight="600" fill="#8a9089" text-anchor="middle" letter-spacing="-0.02em">국시 · NCLEX · 임상</text><rect x="-150" y="-200" width="146" height="146" rx="22" fill="#fff" stroke="#e7ddca" stroke-width="3"></rect><circle cx="-110" cy="-156" r="22" fill="#7fa881" opacity="0.18"></circle><circle cx="-110" cy="-156" r="11" fill="#7fa881"></circle><text x="-130" y="-92" font-size="22" font-weight="700" fill="#2f3a30" text-anchor="start" letter-spacing="-0.03em">국시</text><rect x="4" y="-200" width="146" height="146" rx="22" fill="#fff" stroke="#e7ddca" stroke-width="3"></rect><circle cx="44" cy="-156" r="22" fill="#3a5da8" opacity="0.18"></circle><circle cx="44" cy="-156" r="11" fill="#3a5da8"></circle><text x="24" y="-92" font-size="22" font-weight="700" fill="#2f3a30" text-anchor="start" letter-spacing="-0.03em">NCLEX</text><rect x="-150" y="-44" width="146" height="146" rx="22" fill="#fff" stroke="#e7ddca" stroke-width="3"></rect><circle cx="-110" cy="0" r="22" fill="#d9a441" opacity="0.18"></circle><circle cx="-110" cy="0" r="11" fill="#d9a441"></circle><text x="-130" y="64" font-size="22" font-weight="700" fill="#2f3a30" text-anchor="start" letter-spacing="-0.03em">임상시뮬</text><rect x="4" y="-44" width="146" height="146" rx="22" fill="#fff" stroke="#e7ddca" stroke-width="3"></rect><circle cx="44" cy="0" r="22" fill="#d96b5c" opacity="0.18"></circle><circle cx="44" cy="0" r="11" fill="#d96b5c"></circle><text x="24" y="64" font-size="22" font-weight="700" fill="#2f3a30" text-anchor="start" letter-spacing="-0.03em">오답노트</text><rect x="-150" y="112" width="146" height="146" rx="22" fill="#fff" stroke="#e7ddca" stroke-width="3"></rect><circle cx="-110" cy="156" r="22" fill="#557d58" opacity="0.18"></circle><circle cx="-110" cy="156" r="11" fill="#557d58"></circle><text x="-130" y="220" font-size="22" font-weight="700" fill="#2f3a30" text-anchor="start" letter-spacing="-0.03em">약점분석</text><rect x="4" y="112" width="146" height="146" rx="22" fill="#fff" stroke="#e7ddca" stroke-width="3"></rect><circle cx="44" cy="156" r="22" fill="#3f6043" opacity="0.18"></circle><circle cx="44" cy="156" r="11" fill="#3f6043"></circle><text x="24" y="220" font-size="22" font-weight="700" fill="#2f3a30" text-anchor="start" letter-spacing="-0.03em">북마크</text></g><rect x="430" y="200" width="330" height="72" rx="16" fill="#fff" stroke="#ece2cf" stroke-width="3"></rect><circle cx="470" cy="240" r="20" fill="#7fa881"></circle><path d="M 461 240 L 468 247.6 L 480 232" stroke="#fff" stroke-width="5.6000000000000005" fill="none"></path><text x="510" y="250" font-size="24" font-weight="600" fill="#2f3a30" text-anchor="start" letter-spacing="-0.02em">국시 1,000+ · NCLEX 2,200 무료</text><rect x="430" y="286" width="330" height="72" rx="16" fill="#fff" stroke="#ece2cf" stroke-width="3"></rect><circle cx="470" cy="326" r="20" fill="#7fa881"></circle><path d="M 461 326 L 468 333.6 L 480 318" stroke="#fff" stroke-width="5.6000000000000005" fill="none"></path><text x="510" y="336" font-size="24" font-weight="600" fill="#2f3a30" text-anchor="start" letter-spacing="-0.02em">가입 없이 바로 풀이</text><rect x="430" y="372" width="330" height="72" rx="16" fill="#fff" stroke="#ece2cf" stroke-width="3"></rect><circle cx="470" cy="412" r="20" fill="#7fa881"></circle><path d="M 461 412 L 468 419.6 L 480 404" stroke="#fff" stroke-width="5.6000000000000005" fill="none"></path><text x="510" y="422" font-size="24" font-weight="600" fill="#2f3a30" text-anchor="start" letter-spacing="-0.02em">오답노트 · 약점 분석 자동</text><text x="595" y="540" font-size="20" font-weight="600" fill="#8a9089" text-anchor="middle" letter-spacing="-0.02em">광고 거의 없음 · 직접 만든 앱이에요 🙂</text></svg>