<svg viewBox="0 0 1080 1920" width="1080" height="1920" fill="none" xmlns="http://www.w3.org/2000/svg" stroke-linecap="round" stroke-linejoin="round" font-family="Pretendard,&#39;Apple SD Gothic Neo&#39;,sans-serif">
  <defs><linearGradient id="bg" x1="0" y1="0" x2="0" y2="1"><stop offset="0" stop-color="#cfe6d2"></stop><stop offset="0.55" stop-color="#dfeede"></stop><stop offset="1" stop-color="#f3f0e6"></stop></linearGradient>
  <linearGradient id="floor" x1="0" y1="0" x2="0" y2="1"><stop offset="0" stop-color="#eef4ed"></stop><stop offset="1" stop-color="#e2ebe2"></stop></linearGradient></defs>
  <rect width="1080" height="1920" fill="url(#bg)"></rect><rect x="0" y="1180" width="1080" height="120" fill="url(#floor)"></rect><rect x="640" y="420" width="300" height="780" rx="14" fill="#dceee0" stroke="#3f6043" stroke-width="8"></rect><line x1="790" y1="420" x2="790" y2="1200" stroke="#3f6043" stroke-width="5"></line><rect x="666" y="470" width="100" height="120" rx="8" fill="#bcdcc0"></rect><rect x="814" y="470" width="100" height="120" rx="8" fill="#bcdcc0"></rect><circle cx="772" cy="820" r="9" fill="#d9a441"></circle><circle cx="808" cy="820" r="9" fill="#d9a441"></circle><path d="M 660 440 L 980 440 L 1080 1180 L 560 1180 Z" fill="#fff" opacity="0.25"></path><g transform="translate(400 1180) scale(1.45)"><ellipse cx="0" cy="6" rx="150" ry="26" fill="#000" opacity="0.06"></ellipse><rect x="-58" y="-210" width="46" height="210" rx="22" fill="#3f6043"></rect><rect x="12" y="-210" width="46" height="210" rx="22" fill="#3f6043"></rect><rect x="-64" y="-22" width="58" height="26" rx="12" fill="#fdfdfb" stroke="#3f6043" stroke-width="4"></rect><rect x="6" y="-22" width="58" height="26" rx="12" fill="#fdfdfb" stroke="#3f6043" stroke-width="4"></rect><path d="M -92 -440 Q 0 -480 92 -440 L 78 -200 Q 0 -176 -78 -200 Z" fill="#7fa881" stroke="#3f6043" stroke-width="6"></path><path d="M -36 -452 L 0 -420 L 36 -452" fill="none" stroke="#3f6043" stroke-width="5"></path><path d="M 80 -430 L 96 -300" stroke="#7fa881" stroke-width="34" fill="none"></path><circle cx="98" cy="-286" r="22" fill="#e8c9a3"></circle><path d="M -80 -430 L -96 -300" stroke="#7fa881" stroke-width="34" fill="none"></path><circle cx="-98" cy="-286" r="22" fill="#e8c9a3"></circle><rect x="-20" y="-500" width="40" height="56" fill="#e8c9a3"></rect><path d="M -40 -452 Q 0 -380 40 -452" stroke="#2f4a39" stroke-width="7" fill="none"></path><circle cx="22" cy="-360" r="16" fill="#d9a441" stroke="#2f4a39" stroke-width="5"></circle><circle cx="0" cy="-540" r="62" fill="#e8c9a3" stroke="#d6ab7e" stroke-width="5"></circle><path d="M -62 -540 Q -70 -600 0 -606 Q 70 -600 62 -540 L 62 -520 Q 40 -560 0 -558 Q -40 -560 -62 -520 Z" fill="#5b4636"></path><path d="M -50 -592 Q 0 -628 50 -592 L 42 -566 Q 0 -582 -42 -566 Z" fill="#ffffff" stroke="#3f6043" stroke-width="5"></path><path d="M -8 -592 h 16 M 0 -600 v 16" stroke="#d96b5c" stroke-width="6"></path><circle cx="-20" cy="-540" r="5" fill="#3f4a40"></circle><circle cx="20" cy="-540" r="5" fill="#3f4a40"></circle><path d="M -14 -518 Q 0 -506 14 -518" stroke="#3f4a40" stroke-width="4" fill="none"></path><circle cx="-34" cy="-524" r="9" fill="#f2b8a8" opacity="0.6"></circle><circle cx="34" cy="-524" r="9" fill="#f2b8a8" opacity="0.6"></circle></g><path d="M 250 390 Q 256 414 280 420 Q 256 426 250 450 Q 244 426 220 420 Q 244 414 250 390 Z" fill="#d9a441"></path><path d="M 560 338 Q 564.4 355.6 582 360 Q 564.4 364.4 560 382 Q 555.6 364.4 538 360 Q 555.6 355.6 560 338 Z" fill="#7fa881"></path></svg>