<svg viewBox="0 0 1080 1920" width="1080" height="1920" fill="none" xmlns="http://www.w3.org/2000/svg" stroke-linecap="round" stroke-linejoin="round" font-family="Pretendard,&#39;Apple SD Gothic Neo&#39;,sans-serif">
  <defs><linearGradient id="bg" x1="0" y1="0" x2="0" y2="1"><stop offset="0" stop-color="#cfe6d2"></stop><stop offset="0.55" stop-color="#dfeede"></stop><stop offset="1" stop-color="#f3f0e6"></stop></linearGradient>
  <linearGradient id="floor" x1="0" y1="0" x2="0" y2="1"><stop offset="0" stop-color="#eef4ed"></stop><stop offset="1" stop-color="#e2ebe2"></stop></linearGradient></defs>
  <rect width="1080" height="1920" fill="url(#bg)"></rect><path d="M 820 320 Q 828 352 860 360 Q 828 368 820 400 Q 812 368 780 360 Q 812 352 820 320 Z" fill="#d9a441"></path><path d="M 240 492 Q 245.6 514.4 268 520 Q 245.6 525.6 240 548 Q 234.4 525.6 212 520 Q 234.4 514.4 240 492 Z" fill="#7fa881"></path><path d="M 900 796 Q 904.8 815.2 924 820 Q 904.8 824.8 900 844 Q 895.2 824.8 876 820 Q 895.2 815.2 900 796 Z" fill="#fff"></path><g transform="translate(540 1180) scale(1.5)"><ellipse cx="0" cy="6" rx="150" ry="26" fill="#000" opacity="0.06"></ellipse><rect x="-58" y="-210" width="46" height="210" rx="22" fill="#3f6043"></rect><rect x="12" y="-210" width="46" height="210" rx="22" fill="#3f6043"></rect><rect x="-64" y="-22" width="58" height="26" rx="12" fill="#fdfdfb" stroke="#3f6043" stroke-width="4"></rect><rect x="6" y="-22" width="58" height="26" rx="12" fill="#fdfdfb" stroke="#3f6043" stroke-width="4"></rect><path d="M -92 -440 Q 0 -480 92 -440 L 78 -200 Q 0 -176 -78 -200 Z" fill="#7fa881" stroke="#3f6043" stroke-width="6"></path><path d="M -36 -452 L 0 -420 L 36 -452" fill="none" stroke="#3f6043" stroke-width="5"></path><path d="M 80 -430 Q 150 -470 150 -560" stroke="#7fa881" stroke-width="34" fill="none"></path><circle cx="150" cy="-572" r="22" fill="#e8c9a3"></circle><path d="M -80 -430 L -110 -300" stroke="#7fa881" stroke-width="34" fill="none"></path><circle cx="-112" cy="-286" r="22" fill="#e8c9a3"></circle><rect x="-20" y="-500" width="40" height="56" fill="#e8c9a3"></rect><path d="M -40 -452 Q 0 -380 40 -452" stroke="#2f4a39" stroke-width="7" fill="none"></path><circle cx="22" cy="-360" r="16" fill="#d9a441" stroke="#2f4a39" stroke-width="5"></circle><circle cx="0" cy="-540" r="62" fill="#e8c9a3" stroke="#d6ab7e" stroke-width="5"></circle><path d="M -62 -540 Q -70 -600 0 -606 Q 70 -600 62 -540 L 62 -520 Q 40 -560 0 -558 Q -40 -560 -62 -520 Z" fill="#5b4636"></path><path d="M -50 -592 Q 0 -628 50 -592 L 42 -566 Q 0 -582 -42 -566 Z" fill="#ffffff" stroke="#3f6043" stroke-width="5"></path><path d="M -8 -592 h 16 M 0 -600 v 16" stroke="#d96b5c" stroke-width="6"></path><circle cx="-20" cy="-540" r="5" fill="#3f4a40"></circle><circle cx="20" cy="-540" r="5" fill="#3f4a40"></circle><path d="M -14 -518 Q 0 -506 14 -518" stroke="#3f4a40" stroke-width="4" fill="none"></path><circle cx="-34" cy="-524" r="9" fill="#f2b8a8" opacity="0.6"></circle><circle cx="34" cy="-524" r="9" fill="#f2b8a8" opacity="0.6"></circle></g></svg>