<svg viewBox="0 0 1080 1920" width="1080" height="1920" fill="none" xmlns="http://www.w3.org/2000/svg" stroke-linecap="round" stroke-linejoin="round" font-family="Pretendard,&#39;Apple SD Gothic Neo&#39;,sans-serif">
  <defs><linearGradient id="bg" x1="0" y1="0" x2="0" y2="1"><stop offset="0" stop-color="#cfe6d2"></stop><stop offset="0.55" stop-color="#dfeede"></stop><stop offset="1" stop-color="#f3f0e6"></stop></linearGradient>
  <linearGradient id="floor" x1="0" y1="0" x2="0" y2="1"><stop offset="0" stop-color="#eef4ed"></stop><stop offset="1" stop-color="#e2ebe2"></stop></linearGradient></defs>
  <rect width="1080" height="1920" fill="url(#bg)"></rect><rect x="0" y="1180" width="1080" height="120" fill="url(#floor)"></rect><rect x="120" y="430" width="300" height="220" rx="18" fill="#2f4a39" stroke="#3f6043" stroke-width="6"></rect><rect x="150" y="460" width="240" height="160" rx="8" fill="#10231a"></rect><polyline points="160,560 210,560 230,510 250,600 270,540 300,560 380,560" fill="none" stroke="#5fe39a" stroke-width="5"></polyline><rect x="250" y="650" width="40" height="60" fill="#2f4a39"></rect><rect x="260" y="760" width="620" height="120" rx="24" fill="#fdfdfb" stroke="#3f6043" stroke-width="6"></rect><rect x="240" y="700" width="120" height="180" rx="16" fill="#d7e6d9" stroke="#3f6043" stroke-width="6"></rect><rect x="300" y="780" width="500" height="70" rx="24" fill="#bcdcc0"></rect><circle cx="330" cy="740" r="42" fill="#e8c9a3" stroke="#d6ab7e" stroke-width="5"></circle><rect x="260" y="880" width="40" height="180" fill="#3f6043"></rect><rect x="840" y="880" width="40" height="180" fill="#3f6043"></rect><line x1="940" y1="380" x2="940" y2="1080" stroke="#cfd9cd" stroke-width="10"></line><rect x="906" y="430" width="68" height="120" rx="14" fill="#dceee0" stroke="#3f6043" stroke-width="5"></rect><line x1="940" y1="550" x2="940" y2="780" stroke="#7fa881" stroke-width="4"></line><path d="M 820 270 Q 826 294 850 300 Q 826 306 820 330 Q 814 306 790 300 Q 814 294 820 270 Z" fill="#d9a441"></path></svg>