<svg viewBox="0 0 1080 1920" width="1080" height="1920" fill="none" xmlns="http://www.w3.org/2000/svg" stroke-linecap="round" stroke-linejoin="round" font-family="Pretendard,&#39;Apple SD Gothic Neo&#39;,sans-serif">
  <defs><linearGradient id="bg" x1="0" y1="0" x2="0" y2="1"><stop offset="0" stop-color="#cfe6d2"></stop><stop offset="0.55" stop-color="#dfeede"></stop><stop offset="1" stop-color="#f3f0e6"></stop></linearGradient>
  <linearGradient id="floor" x1="0" y1="0" x2="0" y2="1"><stop offset="0" stop-color="#eef4ed"></stop><stop offset="1" stop-color="#e2ebe2"></stop></linearGradient></defs>
  <rect width="1080" height="1920" fill="url(#bg)"></rect><rect x="180" y="420" width="720" height="520" rx="28" fill="#fff" stroke="#3f6043" stroke-width="6"></rect><rect x="220" y="460" width="260" height="36" rx="10" fill="#eaf2ea"></rect><polyline points="240,840 360,800 480,720 600,740 720,600 840,520" fill="none" stroke="#7fa881" stroke-width="10"></polyline><circle cx="240" cy="840" r="9" fill="#3f6043"></circle><circle cx="360" cy="800" r="9" fill="#3f6043"></circle><circle cx="480" cy="720" r="9" fill="#3f6043"></circle><circle cx="600" cy="740" r="9" fill="#3f6043"></circle><circle cx="720" cy="600" r="9" fill="#3f6043"></circle><circle cx="840" cy="520" r="9" fill="#3f6043"></circle><rect x="250" y="820" width="44" height="60" rx="8" fill="#eaf2ea"></rect><rect x="320" y="770" width="44" height="110" rx="8" fill="#eaf2ea"></rect><rect x="390" y="790" width="44" height="90" rx="8" fill="#eaf2ea"></rect><rect x="460" y="730" width="44" height="150" rx="8" fill="#eaf2ea"></rect><g transform="translate(770 560)"><circle r="58" fill="#d9a441"></circle><path d="M 0 -28 a 28 28 0 0 1 0 56" fill="#fff" opacity="0.3"></path><rect x="-18" y="50" width="36" height="22" rx="6" fill="#3f6043"></rect><path d="M 70 -70 Q 74 -54 90 -50 Q 74 -46 70 -30 Q 66 -46 50 -50 Q 66 -54 70 -70 Z" fill="#fff"></path></g><path d="M 240 332 Q 245.6 354.4 268 360 Q 245.6 365.6 240 388 Q 234.4 365.6 212 360 Q 234.4 354.4 240 332 Z" fill="#d9a441"></path></svg>