<svg viewBox="0 0 1080 1920" width="1080" height="1920" fill="none" xmlns="http://www.w3.org/2000/svg" stroke-linecap="round" stroke-linejoin="round" font-family="Pretendard,&#39;Apple SD Gothic Neo&#39;,sans-serif">
  <defs><linearGradient id="bg" x1="0" y1="0" x2="0" y2="1"><stop offset="0" stop-color="#cfe6d2"></stop><stop offset="0.55" stop-color="#dfeede"></stop><stop offset="1" stop-color="#f3f0e6"></stop></linearGradient>
  <linearGradient id="floor" x1="0" y1="0" x2="0" y2="1"><stop offset="0" stop-color="#eef4ed"></stop><stop offset="1" stop-color="#e2ebe2"></stop></linearGradient></defs>
  <rect width="1080" height="1920" fill="url(#bg)"></rect><g transform="translate(330 620)"><circle r="120" fill="#fff" stroke="#3f6043" stroke-width="6"></circle><path d="M -60 0 a 30 30 0 0 1 60 0 a 30 30 0 0 0 60 0" fill="none"></path><circle cx="0" cy="0" r="60" fill="none"></circle><path d="M 0 -60 A 60 60 0 0 1 0 60 A 30 30 0 0 0 0 0 A 30 30 0 0 1 0 -60 Z" fill="#c1392b"></path><path d="M 0 60 A 60 60 0 0 1 0 -60 A 30 30 0 0 1 0 0 A 30 30 0 0 0 0 60 Z" fill="#2a5db0"></path></g><g transform="translate(750 620)"><clipPath id="us"><circle r="120"></circle></clipPath><g clip-path="url(#us)"><rect x="-120" y="-120" width="240" height="17" fill="#c1392b"></rect><rect x="-120" y="-86" width="240" height="17" fill="#c1392b"></rect><rect x="-120" y="-52" width="240" height="17" fill="#c1392b"></rect><rect x="-120" y="-18" width="240" height="17" fill="#c1392b"></rect><rect x="-120" y="16" width="240" height="17" fill="#c1392b"></rect><rect x="-120" y="50" width="240" height="17" fill="#c1392b"></rect><rect x="-120" y="84" width="240" height="17" fill="#c1392b"></rect><rect x="-120" y="-120" width="120" height="120" fill="#2a3f7a"></rect></g><circle r="120" fill="none" stroke="#3f6043" stroke-width="6"></circle></g><path d="M 450 620 Q 540 540 630 620" stroke="#d9a441" stroke-width="14" fill="none"></path><rect x="380" y="900" width="320" height="80" rx="12" fill="#7fa881" stroke="#3f6043" stroke-width="6"></rect><rect x="410" y="850" width="320" height="80" rx="12" fill="#fdfdfb" stroke="#3f6043" stroke-width="6"></rect><path d="M 560 850 v -60 a 40 40 0 0 1 80 0" stroke="#2f4a39" stroke-width="7" fill="none"></path><circle cx="640" cy="780" r="20" fill="#d9a441" stroke="#2f4a39" stroke-width="5"></circle><path d="M 880 350 Q 886 374 910 380 Q 886 386 880 410 Q 874 386 850 380 Q 874 374 880 350 Z" fill="#d9a441"></path><path d="M 220 396 Q 224.8 415.2 244 420 Q 224.8 424.8 220 444 Q 215.2 424.8 196 420 Q 215.2 415.2 220 396 Z" fill="#7fa881"></path></svg>