<svg viewBox="0 0 800 600" width="800" height="600" fill="none" xmlns="http://www.w3.org/2000/svg" stroke-linecap="round" stroke-linejoin="round" font-family="Pretendard, &#39;Apple SD Gothic Neo&#39;, sans-serif"><rect x="0" y="0" width="800" height="600" fill="#fff"></rect><text x="400" y="52" font-size="30" font-weight="700" fill="#3f4a40" text-anchor="middle" letter-spacing="0">9의 법칙 · Rule of Nines</text><text x="225" y="86" font-size="18" font-weight="600" fill="#4f7553" text-anchor="middle" letter-spacing="0">전면 (Anterior)</text><text x="575" y="86" font-size="18" font-weight="600" fill="#4f7553" text-anchor="middle" letter-spacing="0">후면 (Posterior)</text><g stroke="#d9b181" stroke-width="4">
    <circle cx="225" cy="135.2" r="23.1" fill="#e8c9a3"></circle>
    <rect x="217.65" y="156.2" width="14.700000000000001" height="14.700000000000001" fill="#e8c9a3"></rect>
    <rect x="189.3" y="168.8" width="71.4" height="100.80000000000001" rx="21" fill="#e8c9a3"></rect>
    <rect x="168.3" y="173" width="21" height="96.60000000000001" rx="10.5" fill="#e8c9a3"></rect>
    <rect x="260.7" y="173" width="21" height="96.60000000000001" rx="10.5" fill="#e8c9a3"></rect>
    <rect x="191.4" y="267.5" width="29.400000000000002" height="115.5" rx="13.65" fill="#e8c9a3"></rect>
    <rect x="229.2" y="267.5" width="29.400000000000002" height="115.5" rx="13.65" fill="#e8c9a3"></rect>
  </g><g stroke="#d9b181" stroke-width="4">
    <circle cx="575" cy="135.2" r="23.1" fill="#ecd9c4"></circle>
    <rect x="567.65" y="156.2" width="14.700000000000001" height="14.700000000000001" fill="#ecd9c4"></rect>
    <rect x="539.3" y="168.8" width="71.4" height="100.80000000000001" rx="21" fill="#ecd9c4"></rect>
    <rect x="518.3" y="173" width="21" height="96.60000000000001" rx="10.5" fill="#ecd9c4"></rect>
    <rect x="610.7" y="173" width="21" height="96.60000000000001" rx="10.5" fill="#ecd9c4"></rect>
    <rect x="541.4" y="267.5" width="29.400000000000002" height="115.5" rx="13.65" fill="#ecd9c4"></rect>
    <rect x="579.2" y="267.5" width="29.400000000000002" height="115.5" rx="13.65" fill="#ecd9c4"></rect>
  </g><g><circle cx="225" cy="140" r="20" fill="#fff" stroke="#4f7553" stroke-width="3"></circle><text x="225" y="146" font-size="16" font-weight="700" fill="#4f7553" text-anchor="middle" letter-spacing="0">9%</text></g><g><circle cx="150" cy="250" r="20" fill="#fff" stroke="#4f7553" stroke-width="3"></circle><text x="150" y="256" font-size="16" font-weight="700" fill="#4f7553" text-anchor="middle" letter-spacing="0">9%</text></g><g><circle cx="300" cy="250" r="20" fill="#fff" stroke="#4f7553" stroke-width="3"></circle><text x="300" y="256" font-size="16" font-weight="700" fill="#4f7553" text-anchor="middle" letter-spacing="0">9%</text></g><g><circle cx="225" cy="260" r="20" fill="#fff" stroke="#7fa881" stroke-width="3"></circle><text x="225" y="266" font-size="16" font-weight="700" fill="#7fa881" text-anchor="middle" letter-spacing="0">18%</text></g><g><circle cx="192" cy="430" r="20" fill="#fff" stroke="#4f7553" stroke-width="3"></circle><text x="192" y="436" font-size="16" font-weight="700" fill="#4f7553" text-anchor="middle" letter-spacing="0">9%</text></g><g><circle cx="258" cy="430" r="20" fill="#fff" stroke="#4f7553" stroke-width="3"></circle><text x="258" y="436" font-size="16" font-weight="700" fill="#4f7553" text-anchor="middle" letter-spacing="0">9%</text></g><g><circle cx="225" cy="500" r="20" fill="#fff" stroke="#e08a4e" stroke-width="3"></circle><text x="225" y="506" font-size="16" font-weight="700" fill="#e08a4e" text-anchor="middle" letter-spacing="0">1%</text></g><text x="225" y="560" font-size="15" font-weight="600" fill="#e08a4e" text-anchor="middle" letter-spacing="0">회음부 1%</text><g><circle cx="575" cy="140" r="20" fill="#fff" stroke="#4f7553" stroke-width="3"></circle><text x="575" y="146" font-size="16" font-weight="700" fill="#4f7553" text-anchor="middle" letter-spacing="0">9%</text></g><g><circle cx="500" cy="250" r="20" fill="#fff" stroke="#4f7553" stroke-width="3"></circle><text x="500" y="256" font-size="16" font-weight="700" fill="#4f7553" text-anchor="middle" letter-spacing="0">9%</text></g><g><circle cx="650" cy="250" r="20" fill="#fff" stroke="#4f7553" stroke-width="3"></circle><text x="650" y="256" font-size="16" font-weight="700" fill="#4f7553" text-anchor="middle" letter-spacing="0">9%</text></g><g><circle cx="575" cy="260" r="20" fill="#fff" stroke="#7fa881" stroke-width="3"></circle><text x="575" y="266" font-size="16" font-weight="700" fill="#7fa881" text-anchor="middle" letter-spacing="0">18%</text></g><g><circle cx="542" cy="430" r="20" fill="#fff" stroke="#4f7553" stroke-width="3"></circle><text x="542" y="436" font-size="16" font-weight="700" fill="#4f7553" text-anchor="middle" letter-spacing="0">9%</text></g><g><circle cx="608" cy="430" r="20" fill="#fff" stroke="#4f7553" stroke-width="3"></circle><text x="608" y="436" font-size="16" font-weight="700" fill="#4f7553" text-anchor="middle" letter-spacing="0">9%</text></g><text x="400" y="592" font-size="14" font-weight="600" fill="#9aa09a" text-anchor="middle" letter-spacing="0">성인 기준 · 체표면적(BSA) 추정</text></svg>