<svg viewBox="0 0 800 600" width="800" height="600" fill="none" xmlns="http://www.w3.org/2000/svg" stroke-linecap="round" stroke-linejoin="round" font-family="Pretendard,&#39;Apple SD Gothic Neo&#39;,sans-serif"><rect width="800" height="600" fill="#fff"></rect><text x="400" y="52" font-size="28" font-weight="700" fill="#3f4a40" text-anchor="middle">창백 (Pallor)</text><text x="400" y="82" font-size="15" font-weight="600" fill="#9aa09a" text-anchor="middle">심한 창백 · 정상과 비교</text><rect x="60" y="120" width="300" height="360" rx="20" fill="#fbfaf6" stroke="#e3ded2" stroke-width="2"></rect><text x="210" y="470" font-size="18" font-weight="700" fill="#4f7553" text-anchor="middle">정상</text><rect x="440" y="120" width="300" height="360" rx="20" fill="#fbfaf9" stroke="#e3ded2" stroke-width="2"></rect><text x="590" y="470" font-size="18" font-weight="700" fill="#4f7553" text-anchor="middle">창백</text><g transform="translate(210 250) scale(1)"><rect x="-44" y="0" width="88" height="84" rx="30" fill="#e8c9a3" stroke="#d6ab7e" stroke-width="3"></rect><rect x="-34" y="-58" width="18" height="70" rx="9" fill="#e8c9a3" stroke="#d6ab7e" stroke-width="3"></rect><rect x="-34" y="-58" width="18" height="20" rx="9" fill="#e8c9a3"></rect><rect x="-12" y="-58" width="18" height="70" rx="9" fill="#e8c9a3" stroke="#d6ab7e" stroke-width="3"></rect><rect x="-12" y="-58" width="18" height="20" rx="9" fill="#e8c9a3"></rect><rect x="10" y="-58" width="18" height="70" rx="9" fill="#e8c9a3" stroke="#d6ab7e" stroke-width="3"></rect><rect x="10" y="-58" width="18" height="20" rx="9" fill="#e8c9a3"></rect><rect x="32" y="-58" width="18" height="70" rx="9" fill="#e8c9a3" stroke="#d6ab7e" stroke-width="3"></rect><rect x="32" y="-58" width="18" height="20" rx="9" fill="#e8c9a3"></rect><rect x="-58" y="14" width="20" height="54" rx="10" fill="#e8c9a3" stroke="#d6ab7e" stroke-width="3" transform="rotate(-28 -48 40)"></rect></g><g transform="translate(590 250) scale(1)"><rect x="-44" y="0" width="88" height="84" rx="30" fill="#f0e6d8" stroke="#d6ab7e" stroke-width="3"></rect><rect x="-34" y="-58" width="18" height="70" rx="9" fill="#f0e6d8" stroke="#d6ab7e" stroke-width="3"></rect><rect x="-34" y="-58" width="18" height="20" rx="9" fill="#f0e6d8"></rect><rect x="-12" y="-58" width="18" height="70" rx="9" fill="#f0e6d8" stroke="#d6ab7e" stroke-width="3"></rect><rect x="-12" y="-58" width="18" height="20" rx="9" fill="#f0e6d8"></rect><rect x="10" y="-58" width="18" height="70" rx="9" fill="#f0e6d8" stroke="#d6ab7e" stroke-width="3"></rect><rect x="10" y="-58" width="18" height="20" rx="9" fill="#f0e6d8"></rect><rect x="32" y="-58" width="18" height="70" rx="9" fill="#f0e6d8" stroke="#d6ab7e" stroke-width="3"></rect><rect x="32" y="-58" width="18" height="20" rx="9" fill="#f0e6d8"></rect><rect x="-58" y="14" width="20" height="54" rx="10" fill="#f0e6d8" stroke="#d6ab7e" stroke-width="3" transform="rotate(-28 -48 40)"></rect></g><text x="590" y="520" font-size="13" font-weight="600" fill="#a89f90" text-anchor="middle">거의 백색</text></svg>