<svg viewBox="0 0 800 600" width="800" height="600" fill="none" xmlns="http://www.w3.org/2000/svg" stroke-linecap="round" stroke-linejoin="round" font-family="Pretendard,&#39;Apple SD Gothic Neo&#39;,sans-serif"><rect width="800" height="600" fill="#fff"></rect><text x="400" y="52" font-size="28" font-weight="700" fill="#3f4a40" text-anchor="middle">얼룩덜룩 (Mottled)</text><text x="400" y="82" font-size="15" font-weight="600" fill="#9aa09a" text-anchor="middle">망상 청자색 · 관류 저하</text><rect x="250" y="130" width="300" height="360" rx="40" fill="#e8c9a3" stroke="#d6ab7e" stroke-width="3"></rect><circle cx="283" cy="170" r="32" fill="#9a7fae" opacity="0.35"></circle><circle cx="347" cy="165" r="24" fill="#9a7fae" opacity="0.32"></circle><circle cx="392" cy="169" r="31" fill="#9a7fae" opacity="0.31"></circle><circle cx="446" cy="164" r="33" fill="#9a7fae" opacity="0.23"></circle><circle cx="494" cy="176" r="22" fill="#9a7fae" opacity="0.23"></circle><circle cx="288" cy="234" r="20" fill="#9a7fae" opacity="0.36"></circle><circle cx="348" cy="232" r="28" fill="#9a7fae" opacity="0.27"></circle><circle cx="393" cy="226" r="20" fill="#9a7fae" opacity="0.25"></circle><circle cx="452" cy="235" r="30" fill="#9a7fae" opacity="0.34"></circle><circle cx="500" cy="224" r="28" fill="#9a7fae" opacity="0.26"></circle><circle cx="290" cy="289" r="23" fill="#9a7fae" opacity="0.29"></circle><circle cx="334" cy="287" r="23" fill="#9a7fae" opacity="0.33"></circle><circle cx="399" cy="284" r="27" fill="#9a7fae" opacity="0.21"></circle><circle cx="449" cy="295" r="20" fill="#9a7fae" opacity="0.30"></circle><circle cx="507" cy="289" r="20" fill="#9a7fae" opacity="0.30"></circle><circle cx="294" cy="347" r="27" fill="#9a7fae" opacity="0.39"></circle><circle cx="351" cy="345" r="19" fill="#9a7fae" opacity="0.21"></circle><circle cx="393" cy="356" r="25" fill="#9a7fae" opacity="0.21"></circle><circle cx="445" cy="352" r="22" fill="#9a7fae" opacity="0.19"></circle><circle cx="490" cy="353" r="19" fill="#9a7fae" opacity="0.39"></circle><circle cx="299" cy="408" r="27" fill="#9a7fae" opacity="0.31"></circle><circle cx="347" cy="404" r="19" fill="#9a7fae" opacity="0.22"></circle><circle cx="394" cy="412" r="19" fill="#9a7fae" opacity="0.26"></circle><circle cx="447" cy="410" r="24" fill="#9a7fae" opacity="0.35"></circle><circle cx="496" cy="404" r="20" fill="#9a7fae" opacity="0.27"></circle><circle cx="295" cy="468" r="28" fill="#9a7fae" opacity="0.35"></circle><text x="400" y="520" font-size="14" font-weight="600" fill="#7a6a8a" text-anchor="middle">사지 망상 반점</text></svg>