<svg viewBox="0 0 800 600" width="800" height="600" fill="none" xmlns="http://www.w3.org/2000/svg" stroke-linecap="round" stroke-linejoin="round" font-family="Pretendard,&#39;Apple SD Gothic Neo&#39;,sans-serif"><rect width="800" height="600" fill="#fff"></rect><text x="400" y="52" font-size="28" font-weight="700" fill="#3f4a40" text-anchor="middle">황달 (Jaundice)</text><text x="400" y="82" font-size="15" font-weight="600" fill="#9aa09a" text-anchor="middle">노란 공막 + 피부 황염</text><rect x="60" y="120" width="300" height="360" rx="20" fill="#fbfaf6" stroke="#e3ded2" stroke-width="2"></rect><text x="210" y="470" font-size="18" font-weight="700" fill="#4f7553" text-anchor="middle">정상</text><rect x="440" y="120" width="300" height="360" rx="20" fill="#ddc27a22" stroke="#e3ded2" stroke-width="2"></rect><text x="590" y="470" font-size="18" font-weight="700" fill="#4f7553" text-anchor="middle">황달</text><g transform="translate(210 230) scale(1)"><path d="M -70 0 Q 0 -46 70 0 Q 0 46 -70 0 Z" fill="#ffffff" stroke="#d6ab7e" stroke-width="3"></path><circle cx="0" cy="0" r="26" fill="#7a5a3a"></circle><circle cx="0" cy="0" r="12" fill="#2c2c2c"></circle><circle cx="-7" cy="-7" r="4" fill="#fff"></circle></g><g transform="translate(590 230) scale(1)"><path d="M -70 0 Q 0 -46 70 0 Q 0 46 -70 0 Z" fill="#f3df8c" stroke="#d6ab7e" stroke-width="3"></path><circle cx="0" cy="0" r="26" fill="#7a5a3a"></circle><circle cx="0" cy="0" r="12" fill="#2c2c2c"></circle><circle cx="-7" cy="-7" r="4" fill="#fff"></circle></g><rect x="120" y="320" width="180" height="90" rx="14" fill="#e8c9a3"></rect><rect x="500" y="320" width="180" height="90" rx="14" fill="#ddc27a"></rect><text x="590" y="520" font-size="13" font-weight="600" fill="#9a8330" text-anchor="middle">공막·피부 황색</text></svg>