<svg viewBox="0 0 800 400" width="800" height="400" fill="none" xmlns="http://www.w3.org/2000/svg" stroke-linecap="round" stroke-linejoin="round" font-family="Pretendard, &#39;Apple SD Gothic Neo&#39;, sans-serif"><rect x="0" y="0" width="800" height="400" fill="#fff"></rect><text x="400" y="52" font-size="26" font-weight="700" fill="#3f4a40" text-anchor="middle" letter-spacing="0">소변 — 거품뇨 (단백뇨 의심)</text><rect x="234" y="120" width="92" height="200" rx="14" fill="#f3f4f2" stroke="#cfd4cd" stroke-width="3"></rect><rect x="240" y="170" width="80" height="144" rx="8" fill="#e9cd5f"></rect><ellipse cx="280" cy="170" rx="40" ry="9" fill="#e0c24f"></ellipse><circle cx="287" cy="192" r="7" fill="#fff" opacity="0.8"></circle><circle cx="254" cy="190" r="7" fill="#fff" opacity="0.8"></circle><circle cx="262" cy="180" r="7" fill="#fff" opacity="0.8"></circle><circle cx="278" cy="180" r="6" fill="#fff" opacity="0.8"></circle><circle cx="289" cy="185" r="8" fill="#fff" opacity="0.8"></circle><circle cx="257" cy="181" r="9" fill="#fff" opacity="0.8"></circle><circle cx="304" cy="180" r="4" fill="#fff" opacity="0.8"></circle><circle cx="248" cy="186" r="5" fill="#fff" opacity="0.8"></circle><circle cx="272" cy="183" r="6" fill="#fff" opacity="0.8"></circle><circle cx="277" cy="189" r="5" fill="#fff" opacity="0.8"></circle><text x="280" y="360" font-size="18" font-weight="700" fill="#3f4a40" text-anchor="middle" letter-spacing="0">비정상</text><text x="280" y="384" font-size="13" font-weight="600" fill="#9aa09a" text-anchor="middle" letter-spacing="0">지속되는 거품</text><rect x="494" y="120" width="92" height="200" rx="14" fill="#f3f4f2" stroke="#cfd4cd" stroke-width="3"></rect><rect x="500" y="170" width="80" height="144" rx="8" fill="#ecca52"></rect><ellipse cx="540" cy="170" rx="40" ry="9" fill="#e7c23f"></ellipse><text x="540" y="360" font-size="18" font-weight="700" fill="#3f4a40" text-anchor="middle" letter-spacing="0">정상</text><text x="540" y="384" font-size="13" font-weight="600" fill="#9aa09a" text-anchor="middle" letter-spacing="0">맑은 노랑</text></svg>