<svg viewBox="0 0 800 600" width="800" height="600" fill="none" xmlns="http://www.w3.org/2000/svg" stroke-linecap="round" stroke-linejoin="round" font-family="Pretendard,&#39;Apple SD Gothic Neo&#39;,sans-serif"><rect width="800" height="600" fill="#fff"></rect><text x="400" y="52" font-size="28" font-weight="700" fill="#3f4a40" text-anchor="middle">Stage 3 압창</text><text x="400" y="82" font-size="15" font-weight="600" fill="#9aa09a" text-anchor="middle">전층 피부 손실 · 피하지방 노출</text>
  <rect x="80" y="170" width="640" height="26" fill="#e3b78c"></rect>
  <rect x="80" y="196" width="640" height="100" fill="#ecae93"></rect>
  <rect x="80" y="296" width="640" height="104" fill="#f1de96"></rect>
  <circle cx="100" cy="330" r="15" fill="none" stroke="#d9c062" stroke-width="3"></circle><circle cx="145" cy="358" r="15" fill="none" stroke="#d9c062" stroke-width="3"></circle><circle cx="190" cy="330" r="15" fill="none" stroke="#d9c062" stroke-width="3"></circle><circle cx="235" cy="358" r="15" fill="none" stroke="#d9c062" stroke-width="3"></circle><circle cx="280" cy="330" r="15" fill="none" stroke="#d9c062" stroke-width="3"></circle><circle cx="325" cy="358" r="15" fill="none" stroke="#d9c062" stroke-width="3"></circle><circle cx="370" cy="330" r="15" fill="none" stroke="#d9c062" stroke-width="3"></circle><circle cx="415" cy="358" r="15" fill="none" stroke="#d9c062" stroke-width="3"></circle><circle cx="460" cy="330" r="15" fill="none" stroke="#d9c062" stroke-width="3"></circle><circle cx="505" cy="358" r="15" fill="none" stroke="#d9c062" stroke-width="3"></circle><circle cx="550" cy="330" r="15" fill="none" stroke="#d9c062" stroke-width="3"></circle><circle cx="595" cy="358" r="15" fill="none" stroke="#d9c062" stroke-width="3"></circle><circle cx="640" cy="330" r="15" fill="none" stroke="#d9c062" stroke-width="3"></circle><circle cx="685" cy="358" r="15" fill="none" stroke="#d9c062" stroke-width="3"></circle>
  <rect x="80" y="400" width="640" height="78" fill="#bd5a52"></rect>
  <line x1="90" y1="404" x2="90" y2="474" stroke="#9c443d" stroke-width="2" opacity="0.5"></line><line x1="122" y1="404" x2="122" y2="474" stroke="#9c443d" stroke-width="2" opacity="0.5"></line><line x1="154" y1="404" x2="154" y2="474" stroke="#9c443d" stroke-width="2" opacity="0.5"></line><line x1="186" y1="404" x2="186" y2="474" stroke="#9c443d" stroke-width="2" opacity="0.5"></line><line x1="218" y1="404" x2="218" y2="474" stroke="#9c443d" stroke-width="2" opacity="0.5"></line><line x1="250" y1="404" x2="250" y2="474" stroke="#9c443d" stroke-width="2" opacity="0.5"></line><line x1="282" y1="404" x2="282" y2="474" stroke="#9c443d" stroke-width="2" opacity="0.5"></line><line x1="314" y1="404" x2="314" y2="474" stroke="#9c443d" stroke-width="2" opacity="0.5"></line><line x1="346" y1="404" x2="346" y2="474" stroke="#9c443d" stroke-width="2" opacity="0.5"></line><line x1="378" y1="404" x2="378" y2="474" stroke="#9c443d" stroke-width="2" opacity="0.5"></line><line x1="410" y1="404" x2="410" y2="474" stroke="#9c443d" stroke-width="2" opacity="0.5"></line><line x1="442" y1="404" x2="442" y2="474" stroke="#9c443d" stroke-width="2" opacity="0.5"></line><line x1="474" y1="404" x2="474" y2="474" stroke="#9c443d" stroke-width="2" opacity="0.5"></line><line x1="506" y1="404" x2="506" y2="474" stroke="#9c443d" stroke-width="2" opacity="0.5"></line><line x1="538" y1="404" x2="538" y2="474" stroke="#9c443d" stroke-width="2" opacity="0.5"></line><line x1="570" y1="404" x2="570" y2="474" stroke="#9c443d" stroke-width="2" opacity="0.5"></line><line x1="602" y1="404" x2="602" y2="474" stroke="#9c443d" stroke-width="2" opacity="0.5"></line><line x1="634" y1="404" x2="634" y2="474" stroke="#9c443d" stroke-width="2" opacity="0.5"></line><line x1="666" y1="404" x2="666" y2="474" stroke="#9c443d" stroke-width="2" opacity="0.5"></line><line x1="698" y1="404" x2="698" y2="474" stroke="#9c443d" stroke-width="2" opacity="0.5"></line>
  <rect x="80" y="478" width="640" height="42" fill="#efe9d8"></rect>
  <rect x="80" y="170" width="640" height="350" fill="none" stroke="#d6ab7e" stroke-width="3" rx="6"></rect>
  <text x="740" y="188" font-size="14" font-weight="600" fill="#8a8f88" text-anchor="start">표피</text>
  <text x="740" y="250" font-size="14" font-weight="600" fill="#8a8f88" text-anchor="start">진피</text>
  <text x="740" y="352" font-size="14" font-weight="600" fill="#8a8f88" text-anchor="start">피하지방</text>
  <text x="740" y="442" font-size="14" font-weight="600" fill="#fff" text-anchor="start">근육</text>
  <text x="740" y="503" font-size="14" font-weight="600" fill="#8a8f88" text-anchor="start">뼈</text><path d="M 280 170 C 280 322.6, 356.8 388, 400 388 C 443.2 388, 520 322.6, 520 170 Z" fill="#cf6b5e" stroke="#9c443d" stroke-width="3"></path><path d="M 295 230 q 105 60 210 0" stroke="#d9c062" stroke-width="0" fill="none"></path><circle cx="320" cy="355" r="6" fill="#cf6b5e" opacity="0.7"></circle><circle cx="350" cy="371" r="6" fill="#cf6b5e" opacity="0.7"></circle><circle cx="380" cy="355" r="6" fill="#cf6b5e" opacity="0.7"></circle><circle cx="410" cy="371" r="6" fill="#cf6b5e" opacity="0.7"></circle><circle cx="440" cy="355" r="6" fill="#cf6b5e" opacity="0.7"></circle><circle cx="470" cy="371" r="6" fill="#cf6b5e" opacity="0.7"></circle><circle cx="500" cy="355" r="6" fill="#cf6b5e" opacity="0.7"></circle><circle cx="530" cy="371" r="6" fill="#cf6b5e" opacity="0.7"></circle><text x="400" y="300" font-size="13" font-weight="600" fill="#fff" text-anchor="middle">육아조직</text></svg>