<svg viewBox="0 0 800 600" width="800" height="600" fill="none" xmlns="http://www.w3.org/2000/svg" stroke-linecap="round" stroke-linejoin="round" font-family="Pretendard,&#39;Apple SD Gothic Neo&#39;,sans-serif"><rect width="800" height="600" fill="#fff"></rect><text x="400" y="52" font-size="28" font-weight="700" fill="#3f4a40" text-anchor="middle">감염된 상처</text><text x="400" y="82" font-size="15" font-weight="600" fill="#9aa09a" text-anchor="middle">발적·농성 분비물·부종</text>
  <rect x="80" y="170" width="640" height="26" fill="#e3b78c"></rect>
  <rect x="80" y="196" width="640" height="100" fill="#ecae93"></rect>
  <rect x="80" y="296" width="640" height="104" fill="#f1de96"></rect>
  <circle cx="100" cy="330" r="15" fill="none" stroke="#d9c062" stroke-width="3"></circle><circle cx="145" cy="358" r="15" fill="none" stroke="#d9c062" stroke-width="3"></circle><circle cx="190" cy="330" r="15" fill="none" stroke="#d9c062" stroke-width="3"></circle><circle cx="235" cy="358" r="15" fill="none" stroke="#d9c062" stroke-width="3"></circle><circle cx="280" cy="330" r="15" fill="none" stroke="#d9c062" stroke-width="3"></circle><circle cx="325" cy="358" r="15" fill="none" stroke="#d9c062" stroke-width="3"></circle><circle cx="370" cy="330" r="15" fill="none" stroke="#d9c062" stroke-width="3"></circle><circle cx="415" cy="358" r="15" fill="none" stroke="#d9c062" stroke-width="3"></circle><circle cx="460" cy="330" r="15" fill="none" stroke="#d9c062" stroke-width="3"></circle><circle cx="505" cy="358" r="15" fill="none" stroke="#d9c062" stroke-width="3"></circle><circle cx="550" cy="330" r="15" fill="none" stroke="#d9c062" stroke-width="3"></circle><circle cx="595" cy="358" r="15" fill="none" stroke="#d9c062" stroke-width="3"></circle><circle cx="640" cy="330" r="15" fill="none" stroke="#d9c062" stroke-width="3"></circle><circle cx="685" cy="358" r="15" fill="none" stroke="#d9c062" stroke-width="3"></circle>
  <rect x="80" y="400" width="640" height="78" fill="#bd5a52"></rect>
  <line x1="90" y1="404" x2="90" y2="474" stroke="#9c443d" stroke-width="2" opacity="0.5"></line><line x1="122" y1="404" x2="122" y2="474" stroke="#9c443d" stroke-width="2" opacity="0.5"></line><line x1="154" y1="404" x2="154" y2="474" stroke="#9c443d" stroke-width="2" opacity="0.5"></line><line x1="186" y1="404" x2="186" y2="474" stroke="#9c443d" stroke-width="2" opacity="0.5"></line><line x1="218" y1="404" x2="218" y2="474" stroke="#9c443d" stroke-width="2" opacity="0.5"></line><line x1="250" y1="404" x2="250" y2="474" stroke="#9c443d" stroke-width="2" opacity="0.5"></line><line x1="282" y1="404" x2="282" y2="474" stroke="#9c443d" stroke-width="2" opacity="0.5"></line><line x1="314" y1="404" x2="314" y2="474" stroke="#9c443d" stroke-width="2" opacity="0.5"></line><line x1="346" y1="404" x2="346" y2="474" stroke="#9c443d" stroke-width="2" opacity="0.5"></line><line x1="378" y1="404" x2="378" y2="474" stroke="#9c443d" stroke-width="2" opacity="0.5"></line><line x1="410" y1="404" x2="410" y2="474" stroke="#9c443d" stroke-width="2" opacity="0.5"></line><line x1="442" y1="404" x2="442" y2="474" stroke="#9c443d" stroke-width="2" opacity="0.5"></line><line x1="474" y1="404" x2="474" y2="474" stroke="#9c443d" stroke-width="2" opacity="0.5"></line><line x1="506" y1="404" x2="506" y2="474" stroke="#9c443d" stroke-width="2" opacity="0.5"></line><line x1="538" y1="404" x2="538" y2="474" stroke="#9c443d" stroke-width="2" opacity="0.5"></line><line x1="570" y1="404" x2="570" y2="474" stroke="#9c443d" stroke-width="2" opacity="0.5"></line><line x1="602" y1="404" x2="602" y2="474" stroke="#9c443d" stroke-width="2" opacity="0.5"></line><line x1="634" y1="404" x2="634" y2="474" stroke="#9c443d" stroke-width="2" opacity="0.5"></line><line x1="666" y1="404" x2="666" y2="474" stroke="#9c443d" stroke-width="2" opacity="0.5"></line><line x1="698" y1="404" x2="698" y2="474" stroke="#9c443d" stroke-width="2" opacity="0.5"></line>
  <rect x="80" y="478" width="640" height="42" fill="#efe9d8"></rect>
  <rect x="80" y="170" width="640" height="350" fill="none" stroke="#d6ab7e" stroke-width="3" rx="6"></rect><ellipse cx="400" cy="180" rx="300" ry="44" fill="#e89a86" opacity="0.55"></ellipse>
  <text x="740" y="188" font-size="14" font-weight="600" fill="#8a8f88" text-anchor="start">표피</text>
  <text x="740" y="250" font-size="14" font-weight="600" fill="#8a8f88" text-anchor="start">진피</text>
  <text x="740" y="352" font-size="14" font-weight="600" fill="#8a8f88" text-anchor="start">피하지방</text>
  <text x="740" y="442" font-size="14" font-weight="600" fill="#fff" text-anchor="start">근육</text>
  <text x="740" y="503" font-size="14" font-weight="600" fill="#8a8f88" text-anchor="start">뼈</text><path d="M 290 170 C 290 261, 360.4 300, 400 300 C 439.6 300, 510 261, 510 170 Z" fill="#cf6b5e" stroke="#9c443d" stroke-width="3"></path><circle cx="340" cy="240" r="10" fill="#e3c64a"></circle><circle cx="364" cy="262" r="8" fill="#e3c64a"></circle><circle cx="388" cy="284" r="6" fill="#e3c64a"></circle><circle cx="412" cy="240" r="10" fill="#e3c64a"></circle><circle cx="436" cy="262" r="8" fill="#e3c64a"></circle><circle cx="460" cy="284" r="6" fill="#e3c64a"></circle><text x="400" y="150" font-size="13" font-weight="600" fill="#b5685a" text-anchor="middle">발적(erythema)</text><text x="470" y="250" font-size="12" font-weight="600" fill="#7a6a20" text-anchor="start">농(pus)</text></svg>